<svg width="300" height="100" viewBox="0 0 600 200" xmlns="http://www.w3.org/2000/svg">
    <g fill="#E53935" stroke="#E53935" stroke-width="6" stroke-linecap="round">
        <circle cx="80" cy="100" r="20"/>

        <circle cx="40" cy="100" r="10"/>
        <circle cx="105" cy="60" r="10"/>
        <circle cx="105" cy="140" r="10"/>

        <path d="M50 100 A30 30 0 0 1 80 70
             M80 70 A30 30 0 0 1 110 100
             M110 100 A30 30 0 0 1 80 130
             M80 130 A30 30 0 0 1 50 100"
              fill="none"/>

        <line x1="80" y1="80" x2="105" y2="60"/>
        <line x1="80" y1="120" x2="105" y2="140"/>
        <line x1="60" y1="100" x2="40" y2="100"/>
    </g>

    <text x="150" y="95" font-family="Arial" font-size="48" fill="#E53935" font-weight="bold" dominant-baseline="middle">PTIT</text>
    <text x="150" y="140" font-family="Arial" font-size="32" fill="#E53935" dominant-baseline="middle">CONNECT</text>
</svg>